<?xml version="1.0" encoding="UTF-8" standalone="no"?>
<!DOCTYPE svg PUBLIC "-//W3C//DTD SVG 1.1//EN"
 "http://www.w3.org/Graphics/SVG/1.1/DTD/svg11.dtd">
<!-- Generated by graphviz version 2.43.0 (0)
 -->
<!-- Title: UML_Class_diagram Pages: 1 -->
<svg width="1001pt" height="511pt"
 viewBox="0.00 0.00 1000.50 511.00" xmlns="http://www.w3.org/2000/svg" xmlns:xlink="http://www.w3.org/1999/xlink">
<g id="graph0" class="graph" transform="scale(1 1) rotate(0) translate(4 507)">
<title>UML_Class_diagram</title>
<polygon fill="white" stroke="transparent" points="-4,4 -4,-507 996.5,-507 996.5,4 -4,4"/>
<!-- database -->
<g id="node1" class="node">
<title>database</title>
<polygon fill="none" stroke="black" points="60,-433.5 60,-502.5 330,-502.5 330,-433.5 60,-433.5"/>
<text text-anchor="middle" x="195" y="-487.3" font-family="Times,serif" font-size="14.00">Database</text>
<polyline fill="none" stroke="black" points="60,-479.5 330,-479.5 "/>
<text text-anchor="middle" x="195" y="-464.3" font-family="Times,serif" font-size="14.00">+connect() : void</text>
<polyline fill="none" stroke="black" points="60,-456.5 330,-456.5 "/>
<text text-anchor="middle" x="195" y="-441.3" font-family="Times,serif" font-size="14.00">+query(queryString: string) : array</text>
</g>
<!-- authentication -->
<g id="node4" class="node">
<title>authentication</title>
<polygon fill="none" stroke="black" points="408.5,-293 408.5,-385 777.5,-385 777.5,-293 408.5,-293"/>
<text text-anchor="middle" x="593" y="-369.8" font-family="Times,serif" font-size="14.00">Authentication</text>
<polyline fill="none" stroke="black" points="408.5,-362 777.5,-362 "/>
<text text-anchor="middle" x="593" y="-346.8" font-family="Times,serif" font-size="14.00">+login(username: string, password: string) : bool</text>
<polyline fill="none" stroke="black" points="408.5,-339 777.5,-339 "/>
<text text-anchor="middle" x="593" y="-323.8" font-family="Times,serif" font-size="14.00">+logout() : void</text>
<polyline fill="none" stroke="black" points="408.5,-316 777.5,-316 "/>
<text text-anchor="middle" x="593" y="-300.8" font-family="Times,serif" font-size="14.00">+isAuthenticated() : bool</text>
</g>
<!-- database&#45;&gt;authentication -->
<g id="edge1" class="edge">
<title>database&#45;&gt;authentication</title>
<path fill="none" stroke="black" d="M300.09,-433.47C343.51,-419.61 394.66,-403.29 441.97,-388.19"/>
<polygon fill="black" stroke="black" points="443.22,-391.47 451.68,-385.09 441.09,-384.8 443.22,-391.47"/>
</g>
<!-- password_reset -->
<g id="node6" class="node">
<title>password_reset</title>
<polygon fill="none" stroke="black" points="0,-281.5 0,-396.5 390,-396.5 390,-281.5 0,-281.5"/>
<text text-anchor="middle" x="195" y="-381.3" font-family="Times,serif" font-size="14.00">PasswordReset</text>
<polyline fill="none" stroke="black" points="0,-373.5 390,-373.5 "/>
<text text-anchor="middle" x="195" y="-358.3" font-family="Times,serif" font-size="14.00">+generateToken(user: User) : string</text>
<polyline fill="none" stroke="black" points="0,-350.5 390,-350.5 "/>
<text text-anchor="middle" x="195" y="-335.3" font-family="Times,serif" font-size="14.00">+validateToken(user: User, token: string) : bool</text>
<polyline fill="none" stroke="black" points="0,-327.5 390,-327.5 "/>
<text text-anchor="middle" x="195" y="-312.3" font-family="Times,serif" font-size="14.00">+sendResetEmail(user: User, token: string) : void</text>
<polyline fill="none" stroke="black" points="0,-304.5 390,-304.5 "/>
<text text-anchor="middle" x="195" y="-289.3" font-family="Times,serif" font-size="14.00">+resetPassword(user: User, password: string) : void</text>
</g>
<!-- database&#45;&gt;password_reset -->
<g id="edge2" class="edge">
<title>database&#45;&gt;password_reset</title>
<path fill="none" stroke="black" d="M188.96,-433.3C188.54,-425.18 188.31,-416.23 188.26,-407.17"/>
<polygon fill="black" stroke="black" points="191.76,-406.95 188.28,-396.95 184.76,-406.94 191.76,-406.95"/>
</g>
<!-- user -->
<g id="node2" class="node">
<title>user</title>
<polygon fill="none" stroke="black" points="344,-118 344,-233 644,-233 644,-118 344,-118"/>
<text text-anchor="middle" x="494" y="-217.8" font-family="Times,serif" font-size="14.00">User</text>
<polyline fill="none" stroke="black" points="344,-210 644,-210 "/>
<text text-anchor="middle" x="494" y="-194.8" font-family="Times,serif" font-size="14.00">+setUsername(username: string) : void</text>
<polyline fill="none" stroke="black" points="344,-187 644,-187 "/>
<text text-anchor="middle" x="494" y="-171.8" font-family="Times,serif" font-size="14.00">+getUsername() : string</text>
<polyline fill="none" stroke="black" points="344,-164 644,-164 "/>
<text text-anchor="middle" x="494" y="-148.8" font-family="Times,serif" font-size="14.00">+setPassword(password: string) : void</text>
<polyline fill="none" stroke="black" points="344,-141 644,-141 "/>
<text text-anchor="middle" x="494" y="-125.8" font-family="Times,serif" font-size="14.00">+getPassword() : string</text>
</g>
<!-- hashing -->
<g id="node3" class="node">
<title>hashing</title>
<polygon fill="none" stroke="black" points="290.5,-0.5 290.5,-69.5 697.5,-69.5 697.5,-0.5 290.5,-0.5"/>
<text text-anchor="middle" x="494" y="-54.3" font-family="Times,serif" font-size="14.00">Hashing</text>
<polyline fill="none" stroke="black" points="290.5,-46.5 697.5,-46.5 "/>
<text text-anchor="middle" x="494" y="-31.3" font-family="Times,serif" font-size="14.00">+hashPassword(password: string) : string</text>
<polyline fill="none" stroke="black" points="290.5,-23.5 697.5,-23.5 "/>
<text text-anchor="middle" x="494" y="-8.3" font-family="Times,serif" font-size="14.00">+verifyPassword(password: string, hash: string) : bool</text>
</g>
<!-- user&#45;&gt;hashing -->
<g id="edge3" class="edge">
<title>user&#45;&gt;hashing</title>
<path fill="none" stroke="black" d="M494,-117.77C494,-105.17 494,-92 494,-80.01"/>
<polygon fill="black" stroke="black" points="497.5,-79.81 494,-69.81 490.5,-79.81 497.5,-79.81"/>
</g>
<!-- authentication&#45;&gt;user -->
<g id="edge4" class="edge">
<title>authentication&#45;&gt;user</title>
<path fill="none" stroke="black" d="M565.16,-292.58C555.52,-276.85 544.51,-258.89 534.08,-241.88"/>
<polygon fill="black" stroke="black" points="536.9,-239.78 528.69,-233.09 530.93,-243.44 536.9,-239.78"/>
</g>
<!-- authentication&#45;&gt;hashing -->
<g id="edge5" class="edge">
<title>authentication&#45;&gt;hashing</title>
<path fill="none" stroke="black" d="M629.49,-292.8C639.05,-278.37 648.06,-261.77 653,-245 670.46,-185.74 686.75,-157.74 653,-106 644.97,-93.69 634.23,-83.52 622.1,-75.14"/>
<polygon fill="black" stroke="black" points="623.81,-72.07 613.5,-69.61 620.02,-77.96 623.81,-72.07"/>
</g>
<!-- mailer -->
<g id="node5" class="node">
<title>mailer</title>
<polygon fill="none" stroke="black" points="64,-106.5 64,-244.5 326,-244.5 326,-106.5 64,-106.5"/>
<text text-anchor="middle" x="195" y="-229.3" font-family="Times,serif" font-size="14.00">Mailer</text>
<polyline fill="none" stroke="black" points="64,-221.5 326,-221.5 "/>
<text text-anchor="middle" x="195" y="-206.3" font-family="Times,serif" font-size="14.00">+setFrom(from: string) : void</text>
<polyline fill="none" stroke="black" points="64,-198.5 326,-198.5 "/>
<text text-anchor="middle" x="195" y="-183.3" font-family="Times,serif" font-size="14.00">+setTo(to: string) : void</text>
<polyline fill="none" stroke="black" points="64,-175.5 326,-175.5 "/>
<text text-anchor="middle" x="195" y="-160.3" font-family="Times,serif" font-size="14.00">+setSubject(subject: string) : void</text>
<polyline fill="none" stroke="black" points="64,-152.5 326,-152.5 "/>
<text text-anchor="middle" x="195" y="-137.3" font-family="Times,serif" font-size="14.00">+setBody(body: string) : void</text>
<polyline fill="none" stroke="black" points="64,-129.5 326,-129.5 "/>
<text text-anchor="middle" x="195" y="-114.3" font-family="Times,serif" font-size="14.00">+send() : void</text>
</g>
<!-- password_reset&#45;&gt;database -->
<g id="edge6" class="edge">
<title>password_reset&#45;&gt;database</title>
<path fill="none" stroke="black" d="M201.72,-396.95C201.8,-405.78 201.72,-414.78 201.45,-423.26"/>
<polygon fill="black" stroke="black" points="197.95,-423.17 201.04,-433.3 204.95,-423.45 197.95,-423.17"/>
</g>
<!-- password_reset&#45;&gt;user -->
<g id="edge7" class="edge">
<title>password_reset&#45;&gt;user</title>
<path fill="none" stroke="black" d="M300,-281.29C326,-267.24 353.98,-252.13 380.37,-237.87"/>
<polygon fill="black" stroke="black" points="382.12,-240.91 389.26,-233.08 378.8,-234.75 382.12,-240.91"/>
</g>
<!-- password_reset&#45;&gt;hashing -->
<g id="edge9" class="edge">
<title>password_reset&#45;&gt;hashing</title>
<path fill="none" stroke="black" d="M84.64,-281.31C72.79,-270.83 62.38,-258.76 55,-245 25.8,-190.56 14.9,-153 55,-106 85.15,-70.67 183.99,-53.08 280.27,-44.37"/>
<polygon fill="black" stroke="black" points="280.82,-47.84 290.48,-43.48 280.22,-40.86 280.82,-47.84"/>
</g>
<!-- password_reset&#45;&gt;mailer -->
<g id="edge8" class="edge">
<title>password_reset&#45;&gt;mailer</title>
<path fill="none" stroke="black" d="M195,-281.06C195,-272.48 195,-263.51 195,-254.58"/>
<polygon fill="black" stroke="black" points="198.5,-254.55 195,-244.55 191.5,-254.55 198.5,-254.55"/>
</g>
<!-- front_controller -->
<g id="node7" class="node">
<title>front_controller</title>
<polygon fill="none" stroke="black" points="437.5,-445 437.5,-491 748.5,-491 748.5,-445 437.5,-445"/>
<text text-anchor="middle" x="593" y="-475.8" font-family="Times,serif" font-size="14.00">FrontController</text>
<polyline fill="none" stroke="black" points="437.5,-468 748.5,-468 "/>
<text text-anchor="middle" x="593" y="-452.8" font-family="Times,serif" font-size="14.00">+handleRequest(request: Request) : void</text>
</g>
<!-- front_controller&#45;&gt;authentication -->
<g id="edge10" class="edge">
<title>front_controller&#45;&gt;authentication</title>
<path fill="none" stroke="black" d="M593,-444.88C593,-431.16 593,-412.87 593,-395.41"/>
<polygon fill="black" stroke="black" points="596.5,-395.26 593,-385.26 589.5,-395.26 596.5,-395.26"/>
</g>
<!-- front_controller&#45;&gt;password_reset -->
<g id="edge11" class="edge">
<title>front_controller&#45;&gt;password_reset</title>
<path fill="none" stroke="black" d="M523.67,-444.88C484.13,-432.26 432.48,-415.78 381.89,-399.64"/>
<polygon fill="black" stroke="black" points="382.71,-396.22 372.12,-396.52 380.58,-402.89 382.71,-396.22"/>
</g>
<!-- request -->
<g id="node8" class="node">
<title>request</title>
<polygon fill="none" stroke="black" points="795.5,-293 795.5,-385 992.5,-385 992.5,-293 795.5,-293"/>
<text text-anchor="middle" x="894" y="-369.8" font-family="Times,serif" font-size="14.00">Request</text>
<polyline fill="none" stroke="black" points="795.5,-362 992.5,-362 "/>
<text text-anchor="middle" x="894" y="-346.8" font-family="Times,serif" font-size="14.00">+getMethod() : string</text>
<polyline fill="none" stroke="black" points="795.5,-339 992.5,-339 "/>
<text text-anchor="middle" x="894" y="-323.8" font-family="Times,serif" font-size="14.00">+getUri() : string</text>
<polyline fill="none" stroke="black" points="795.5,-316 992.5,-316 "/>
<text text-anchor="middle" x="894" y="-300.8" font-family="Times,serif" font-size="14.00">+getParameters() : array</text>
</g>
<!-- front_controller&#45;&gt;request -->
<g id="edge12" class="edge">
<title>front_controller&#45;&gt;request</title>
<path fill="none" stroke="black" d="M661.73,-444.89C699.26,-432.14 746.26,-415.09 787,-397 792.3,-394.65 797.7,-392.14 803.11,-389.54"/>
<polygon fill="black" stroke="black" points="804.77,-392.62 812.22,-385.09 801.7,-386.33 804.77,-392.62"/>
</g>
</g>
</svg>
